<?xml version="1.0" encoding="UTF-8" standalone="no"?>
<!DOCTYPE svg PUBLIC "-//W3C//DTD SVG 1.1//EN" "http://www.w3.org/Graphics/SVG/1.1/DTD/svg11.dtd">
<svg version="1.1" xmlns="http://www.w3.org/2000/svg" xmlns:xlink="http://www.w3.org/1999/xlink" preserveAspectRatio="xMidYMid meet" viewBox="0 0 640 640" width="640" height="640"><defs><path d="M0 0L640 0L640 640L0 640L0 0Z" id="a5N3HLB329"></path><path d="M196.91 580.93C196.91 594.73 185.71 605.93 171.91 605.93C158.11 605.93 146.91 594.73 146.91 580.93C146.91 567.14 158.11 555.93 171.91 555.93C185.71 555.93 196.91 567.14 196.91 580.93Z" id="c1PqgKJLlz"></path><path d="M146.91 280.93L196.91 280.93L196.91 580.93L146.91 580.93L146.91 280.93Z" id="c28VhDpU2"></path><path d="M546.91 280.93C546.91 391.32 457.29 480.93 346.91 480.93C236.53 480.93 146.91 391.32 146.91 280.93C146.91 170.55 236.53 80.93 346.91 80.93C457.29 80.93 546.91 170.55 546.91 280.93Z" id="cGoXdijw"></path><path d="M498.39 280.93C498.39 364.43 430.84 432.22 347.65 432.22C264.46 432.22 196.91 364.43 196.91 280.93C196.91 197.43 264.46 129.64 347.65 129.64C430.84 129.64 498.39 197.43 498.39 280.93Z" id="fk5x9JpoT"></path><path d="M196.91 280.93L550.59 280.93L550.59 486.08L196.91 486.08L196.91 280.93Z" id="elbh0S1KU"></path><path d="M346.91 78.21L558.09 78.21L558.09 283.36L346.91 283.36L346.91 78.21Z" id="ajKXobKhY"></path><path d="M296.91 78.21L346.91 78.21L346.91 278.21L296.91 278.21L296.91 78.21Z" id="c3bLoA10sW"></path><path d="M146.91 78.21L346.91 78.21L346.91 128.21L146.91 128.21L146.91 78.21Z" id="b1xxPs6spa"></path><path d="M346.91 278.21C346.91 292.01 335.71 303.21 321.91 303.21C308.11 303.21 296.91 292.01 296.91 278.21C296.91 264.42 308.11 253.21 321.91 253.21C335.71 253.21 346.91 264.42 346.91 278.21Z" id="c4WBe6ZcD"></path><path d="M171.91 103.18C171.91 116.98 160.71 128.18 146.91 128.18C133.11 128.18 121.91 116.98 121.91 103.18C121.91 89.39 133.11 78.18 146.91 78.18C160.71 78.18 171.91 89.39 171.91 103.18Z" id="d8jSHzF75"></path></defs><g><g><g><use xlink:href="#a5N3HLB329" opacity="1" fill="#ffffff" fill-opacity="1"></use></g><g><use xlink:href="#c1PqgKJLlz" opacity="1" fill="#000000" fill-opacity="1"></use></g><g><use xlink:href="#c28VhDpU2" opacity="1" fill="#000000" fill-opacity="1"></use></g><g><use xlink:href="#cGoXdijw" opacity="1" fill="#000000" fill-opacity="1"></use><g><use xlink:href="#cGoXdijw" opacity="1" fill-opacity="0" stroke="#000000" stroke-width="1" stroke-opacity="1"></use></g></g><g><use xlink:href="#fk5x9JpoT" opacity="1" fill="#ffffff" fill-opacity="1"></use></g><g><use xlink:href="#elbh0S1KU" opacity="1" fill="#ffffff" fill-opacity="1"></use></g><g><use xlink:href="#ajKXobKhY" opacity="1" fill="#ffffff" fill-opacity="1"></use></g><g><use xlink:href="#c3bLoA10sW" opacity="1" fill="#000000" fill-opacity="1"></use></g><g><use xlink:href="#b1xxPs6spa" opacity="1" fill="#000000" fill-opacity="1"></use></g><g><use xlink:href="#c4WBe6ZcD" opacity="1" fill="#000000" fill-opacity="1"></use></g><g><use xlink:href="#d8jSHzF75" opacity="1" fill="#000000" fill-opacity="1"></use></g></g></g></svg>